<svg xmlns="http://www.w3.org/2000/svg" viewBox="0 0 100 100" fill="none" stroke="currentColor" stroke-width="2.6" stroke-linecap="round" stroke-linejoin="round">
  <!-- loose face contour: hair crown -> left cheek -> jaw -> chin -> right jaw -->
  <path d="M73 32 C74 18 58 10 42 15 C26 20 19 38 24 53 C27 65 36 76 49 79 C58 77 65 71 69 62"/>
  <!-- swept hair strands -->
  <path d="M30 30 C40 22 56 21 67 27"/>
  <path d="M34 24 C44 18 57 18 66 23"/>
  <!-- signature feature line: brow -> nose bridge -> nostril -> lips (one stroke) -->
  <path d="M64 37 C57 32 47 33 43 41 C44 50 47 56 51 60 C53 63 50 65 46 63 C45 68 49 71 54 70 C59 69 57 74 51 74"/>
  <!-- eye: minimal almond under the brow -->
  <path d="M45 46 Q50.5 43 57 46"/>
  <!-- beard: jaw line + soft chin tick -->
  <path d="M50 79 C57 78 63 73 66 65"/>
  <path d="M41 75 C44 78 49 79 53 78"/>
</svg>
