<svg width="512" height="512" viewBox="0 0 100 100" xmlns="http://www.w3.org/2000/svg">
    <defs>
        <linearGradient id="gradient1" x1="0%" y1="0%" x2="100%" y2="100%">
            <stop offset="0%" style="stop-color: red; stop-opacity: 1" />
            <stop offset="100%" style="stop-color: blue; stop-opacity: 1" />
        </linearGradient>
    </defs>

    <polygon points="50,10 90,80 10,80" style="fill:none;stroke:url(#gradient1);stroke-width:2" />

    <g transform="rotate(0 50 56.67)">
        <path d="M50,20 Q60,40 40,40 Q60,40 50,70 Q40,40 60,40 Q50,20 50,20 Z"
            style="fill:none;stroke:url(#gradient1);stroke-width:2" />
    </g>
    <g transform="rotate(120 50 56.67)">
        <path d="M50,20 Q60,40 40,40 Q60,40 50,70 Q40,40 60,40 Q50,20 50,20 Z"
            style="fill:none;stroke:url(#gradient1);stroke-width:2" />
    </g>
    <g transform="rotate(240 50 56.67)">
        <path d="M50,20 Q60,40 40,40 Q60,40 50,70 Q40,40 60,40 Q50,20 50,20 Z"
            style="fill:none;stroke:url(#gradient1);stroke-width:2" />
    </g>

    <style>
        @keyframes rotateAnimation {
            0% {
                transform: rotate(0deg);
            }
            100% {
                transform: rotate(360deg);
            }
        }

        svg {
            animation: rotateAnimation 5s infinite linear;
        }
    </style>
</svg>
