<svg width="512" height="512" viewBox="0 0 512 512" xmlns="http://www.w3.org/2000/svg">
  <defs>
    <linearGradient id="brandGrad" x1="0%" y1="0%" x2="100%" y2="100%">
      <stop offset="0%" stop-color="#f07828"/>
      <stop offset="100%" stop-color="#5901d8"/>
    </linearGradient>
  </defs>

  <!-- ── SHIRT / SHOULDERS ── -->
  <path d="M 60 512 L 148 438 Q 195 412 256 410 Q 317 412 364 438 L 452 512 Z"
        fill="#0a0514"/>

  <!-- ── NECK ── -->
  <path d="M 222 408 Q 218 378 218 362 L 294 362 Q 294 378 290 408 Z"
        fill="#c8956a" stroke="#0a0514" stroke-width="3" stroke-linejoin="round"/>

  <!-- ── FACE SHAPE ── wide cheeks, defined jaw, pointed chin -->
  <path d="M 256 118
           C 318 118, 372 148, 374 212
           C 376 268, 370 308, 358 345
           C 344 386, 310 412, 256 415
           C 202 412, 168 386, 154 345
           C 142 308, 136 268, 138 212
           C 140 148, 194 118, 256 118 Z"
        fill="#c8956a" stroke="#0a0514" stroke-width="3.5"/>

  <!-- ── LEFT EAR ── -->
  <path d="M 140 248 C 122 248, 114 264, 116 282 C 118 298, 132 306, 146 299 C 152 288, 150 264, 146 250 Z"
        fill="#c8956a" stroke="#0a0514" stroke-width="3"/>
  <path d="M 138 260 C 128 268, 128 284, 136 290"
        fill="none" stroke="#0a0514" stroke-width="1.5" stroke-linecap="round"/>

  <!-- ── RIGHT EAR ── -->
  <path d="M 372 248 C 390 248, 398 264, 396 282 C 394 298, 380 306, 366 299 C 360 288, 362 264, 366 250 Z"
        fill="#c8956a" stroke="#0a0514" stroke-width="3"/>
  <path d="M 374 260 C 384 268, 384 284, 376 290"
        fill="none" stroke="#0a0514" stroke-width="1.5" stroke-linecap="round"/>

  <!-- ── CAP BODY ── -->
  <path d="M 148 215
           C 150 168, 168 122, 204 101
           C 222 91, 240 86, 256 86
           C 272 86, 290 91, 308 101
           C 344 122, 362 168, 364 215 Z"
        fill="#f07828" stroke="#0a0514" stroke-width="3.5"/>

  <!-- Cap panel seams -->
  <path d="M 256 86 L 256 212" stroke="#0a0514" stroke-width="1.5" stroke-dasharray="4,3" opacity="0.4"/>
  <path d="M 178 102 C 205 138, 224 178, 226 212" stroke="#0a0514" stroke-width="1.5" stroke-dasharray="4,3" opacity="0.4"/>
  <path d="M 334 102 C 307 138, 288 178, 286 212" stroke="#0a0514" stroke-width="1.5" stroke-dasharray="4,3" opacity="0.4"/>

  <!-- Cap top button -->
  <circle cx="256" cy="90" r="9" fill="#0a0514" stroke="#f07828" stroke-width="2"/>

  <!-- ── CAP BRIM ── -->
  <path d="M 148 215 Q 256 234, 364 215 L 378 226 Q 256 248, 134 226 Z"
        fill="#eeeef4" stroke="#0a0514" stroke-width="3"/>
  <path d="M 150 217 Q 256 228, 362 217"
        fill="none" stroke="#0a0514" stroke-width="1.5" opacity="0.4"/>

  <!-- ── HAIR TUFTS (curly, dark, peeking under brim) ── -->
  <path d="M 182 212 C 174 204, 172 200, 178 198 C 183 196, 186 200, 184 207"
        fill="#0a0514" stroke="#0a0514" stroke-width="1"/>
  <path d="M 200 208 C 194 200, 194 196, 200 194 C 206 192, 208 197, 206 205"
        fill="#0a0514" stroke="#0a0514" stroke-width="1"/>
  <path d="M 220 205 C 216 198, 217 194, 223 193 C 229 192, 230 197, 228 204"
        fill="#0a0514" stroke="#0a0514" stroke-width="1"/>
  <path d="M 240 204 C 237 197, 238 193, 244 192 C 250 191, 251 196, 249 203"
        fill="#0a0514" stroke="#0a0514" stroke-width="1"/>
  <path d="M 264 203 C 263 196, 265 193, 271 192 C 277 192, 277 197, 275 204"
        fill="#0a0514" stroke="#0a0514" stroke-width="1"/>
  <path d="M 284 205 C 284 198, 287 195, 293 194 C 299 194, 298 199, 296 206"
        fill="#0a0514" stroke="#0a0514" stroke-width="1"/>
  <path d="M 304 208 C 306 200, 310 197, 315 198 C 320 200, 318 205, 315 211"
        fill="#0a0514" stroke="#0a0514" stroke-width="1"/>
  <path d="M 322 212 C 326 203, 330 200, 335 201 C 340 203, 337 209, 334 214"
        fill="#0a0514" stroke="#0a0514" stroke-width="1"/>
  <!-- Side hair -->
  <path d="M 148 222 C 143 235, 145 250, 148 258"
        fill="none" stroke="#0a0514" stroke-width="5" stroke-linecap="round"/>
  <path d="M 155 220 C 150 232, 152 246, 154 254"
        fill="none" stroke="#0a0514" stroke-width="3.5" stroke-linecap="round"/>
  <path d="M 364 222 C 369 235, 367 250, 364 258"
        fill="none" stroke="#0a0514" stroke-width="5" stroke-linecap="round"/>
  <path d="M 357 220 C 362 232, 360 246, 358 254"
        fill="none" stroke="#0a0514" stroke-width="3.5" stroke-linecap="round"/>

  <!-- ── TRISKELION on cap (brand mark) ── -->
  <g transform="translate(256,152)">
    <g transform="rotate(0,0,13)">
      <path d="M0,-22 Q8,-8 -8,-8 Q8,-8 0,18 Q-8,-8 8,-8 Q0,-22 0,-22 Z"
            fill="none" stroke="#0a0514" stroke-width="3" stroke-linejoin="round"/>
    </g>
    <g transform="rotate(120,0,13)">
      <path d="M0,-22 Q8,-8 -8,-8 Q8,-8 0,18 Q-8,-8 8,-8 Q0,-22 0,-22 Z"
            fill="none" stroke="#0a0514" stroke-width="3" stroke-linejoin="round"/>
    </g>
    <g transform="rotate(240,0,13)">
      <path d="M0,-22 Q8,-8 -8,-8 Q8,-8 0,18 Q-8,-8 8,-8 Q0,-22 0,-22 Z"
            fill="none" stroke="#0a0514" stroke-width="3" stroke-linejoin="round"/>
    </g>
  </g>

  <!-- ── EYEBROWS — bold, strong, slightly arched ── -->
  <path d="M 172 238 Q 200 226, 240 231"
        fill="none" stroke="#0a0514" stroke-width="8" stroke-linecap="round"/>
  <path d="M 172 238 Q 200 226, 240 231"
        fill="none" stroke="#0a0514" stroke-width="5" stroke-linecap="round" opacity="0.7"/>
  <path d="M 272 231 Q 312 226, 340 238"
        fill="none" stroke="#0a0514" stroke-width="8" stroke-linecap="round"/>
  <path d="M 272 231 Q 312 226, 340 238"
        fill="none" stroke="#0a0514" stroke-width="5" stroke-linecap="round" opacity="0.7"/>

  <!-- ── LEFT EYE ── -->
  <path d="M 177 258 Q 207 244, 241 258 Q 207 272, 177 258 Z"
        fill="#eeeef4" stroke="#0a0514" stroke-width="2.5"/>
  <circle cx="209" cy="258" r="11" fill="#0a0514"/>
  <circle cx="213" cy="254" r="3.5" fill="white"/>
  <path d="M 177 258 Q 207 244, 241 258 Q 207 272, 177 258 Z"
        fill="none" stroke="#0a0514" stroke-width="2.5"/>
  <!-- upper eyelid -->
  <path d="M 179 255 Q 207 246, 239 255"
        fill="none" stroke="#0a0514" stroke-width="2" opacity="0.5"/>

  <!-- ── RIGHT EYE ── -->
  <path d="M 271 258 Q 305 244, 335 258 Q 305 272, 271 258 Z"
        fill="#eeeef4" stroke="#0a0514" stroke-width="2.5"/>
  <circle cx="303" cy="258" r="11" fill="#0a0514"/>
  <circle cx="307" cy="254" r="3.5" fill="white"/>
  <path d="M 271 258 Q 305 244, 335 258 Q 305 272, 271 258 Z"
        fill="none" stroke="#0a0514" stroke-width="2.5"/>
  <!-- upper eyelid -->
  <path d="M 273 255 Q 305 246, 333 255"
        fill="none" stroke="#0a0514" stroke-width="2" opacity="0.5"/>

  <!-- ── NOSE ── prominent, straight bridge, broad -->
  <path d="M 248 272 C 244 290, 238 306, 234 322"
        fill="none" stroke="#0a0514" stroke-width="2" stroke-linecap="round" opacity="0.6"/>
  <path d="M 264 272 C 268 290, 274 306, 278 322"
        fill="none" stroke="#0a0514" stroke-width="2" stroke-linecap="round" opacity="0.6"/>
  <!-- Nose tip -->
  <path d="M 234 322 Q 226 332, 230 342 Q 244 352, 256 350 Q 268 352, 282 342 Q 286 332, 278 322"
        fill="none" stroke="#0a0514" stroke-width="2.5" stroke-linejoin="round"/>
  <!-- Nostrils -->
  <ellipse cx="239" cy="340" rx="9" ry="6" fill="#0a0514" opacity="0.2"/>
  <ellipse cx="273" cy="340" rx="9" ry="6" fill="#0a0514" opacity="0.2"/>
  <path d="M 230 342 Q 224 348, 227 354"
        fill="none" stroke="#0a0514" stroke-width="2" stroke-linecap="round"/>
  <path d="M 282 342 Q 288 348, 285 354"
        fill="none" stroke="#0a0514" stroke-width="2" stroke-linecap="round"/>

  <!-- ── LIPS ── full, defined -->
  <path d="M 218 364 Q 256 356, 294 364 Q 276 382, 256 385 Q 236 382, 218 364 Z"
        fill="#b86a4a" stroke="none" opacity="0.8"/>
  <!-- philtrum -->
  <path d="M 248 356 Q 256 362, 264 356"
        fill="none" stroke="#0a0514" stroke-width="2" stroke-linecap="round" opacity="0.6"/>
  <!-- upper lip bow -->
  <path d="M 218 364 Q 236 356, 256 360 Q 276 356, 294 364"
        fill="none" stroke="#0a0514" stroke-width="2.5" stroke-linecap="round"/>
  <!-- lower lip -->
  <path d="M 218 364 Q 237 382, 256 385 Q 275 382, 294 364"
        fill="none" stroke="#0a0514" stroke-width="2.5" stroke-linecap="round"/>
  <!-- mouth center line -->
  <path d="M 220 364 Q 256 368, 292 364"
        fill="none" stroke="#0a0514" stroke-width="1.5" opacity="0.4"/>

  <!-- ── BEARD STUBBLE (stippling) ── -->
  <circle cx="230" cy="378" r="2.5" fill="#0a0514" opacity="0.3"/>
  <circle cx="244" cy="385" r="2.5" fill="#0a0514" opacity="0.3"/>
  <circle cx="258" cy="390" r="2.5" fill="#0a0514" opacity="0.3"/>
  <circle cx="272" cy="385" r="2.5" fill="#0a0514" opacity="0.3"/>
  <circle cx="285" cy="378" r="2.5" fill="#0a0514" opacity="0.3"/>
  <circle cx="222" cy="370" r="2" fill="#0a0514" opacity="0.25"/>
  <circle cx="293" cy="370" r="2" fill="#0a0514" opacity="0.25"/>
  <circle cx="215" cy="358" r="1.8" fill="#0a0514" opacity="0.2"/>
  <circle cx="298" cy="358" r="1.8" fill="#0a0514" opacity="0.2"/>
  <!-- moustache area -->
  <circle cx="240" cy="362" r="1.8" fill="#0a0514" opacity="0.2"/>
  <circle cx="273" cy="362" r="1.8" fill="#0a0514" opacity="0.2"/>
  <circle cx="256" cy="360" r="1.8" fill="#0a0514" opacity="0.15"/>

  <!-- ── CHEEKBONE SHADOW ── subtle definition -->
  <path d="M 152 292 Q 170 310, 186 313"
        fill="none" stroke="#0a0514" stroke-width="2" opacity="0.2" stroke-linecap="round"/>
  <path d="M 360 292 Q 342 310, 326 313"
        fill="none" stroke="#0a0514" stroke-width="2" opacity="0.2" stroke-linecap="round"/>

</svg>
