<svg width="512" height="512" viewBox="0 0 100 100" xmlns="http://www.w3.org/2000/svg">
    <!-- <polygon points="50,10 90,80 10,80" style="fill:none;stroke:black;stroke-width:2" /> -->
    <g transform="rotate(0 50 56.67)">
        <path d="M50,20 Q60,40 40,40 Q60,40 50,70 Q40,40 60,40 Q50,20 50,20 Z"
            style="fill:none;stroke:orange;stroke-width:2">
            <animate attributeName="stroke-width" from="2" to="1" dur="1s" begin="0s" repeatCount="indefinite" />
        </path>
    </g>
    <g transform="rotate(120 50 56.67)">
        <path d="M50,20 Q60,40 40,40 Q60,40 50,70 Q40,40 60,40 Q50,20 50,20 Z"
            style="fill:none;stroke:orange;stroke-width:2">
            <animate attributeName="stroke-width" from="2" to="1" dur="1s" begin="0s" repeatCount="indefinite" />
        </path>
    </g>
    <g transform="rotate(240 50 56.67)">
        <path d="M50,20 Q60,40 40,40 Q60,40 50,70 Q40,40 60,40 Q50,20 50,20 Z"
            style="fill:none;stroke:orange;stroke-width:2">
            <animate attributeName="stroke-width" from="2" to="1" dur="1s" begin="0s" repeatCount="indefinite" />
        </path>
    </g>
</svg>