<svg width="512" height="512" viewBox="0 0 512 512" xmlns="http://www.w3.org/2000/svg">
  <image href="../portrait.svg" width="512" height="512"/>

  <!-- State badge — bottom right, shaking triskelion (red) -->
  <circle cx="420" cy="420" r="52" fill="#0a0514" stroke="#e74c3c" stroke-width="3"/>
  <g transform="translate(420,420)">
    <g transform="rotate(0,0,0)">
      <path d="M0,-24 Q9,-9 -9,-9 Q9,-9 0,21 Q-9,-9 9,-9 Q0,-24 0,-24 Z"
            fill="none" stroke="#e74c3c" stroke-width="3" stroke-linejoin="round">
        <animateTransform attributeName="transform" type="rotate"
          values="0 0 0; -8 0 0; 8 0 0; -5 0 0; 5 0 0; 0 0 0"
          dur="0.5s" repeatCount="indefinite"/>
      </path>
    </g>
    <g transform="rotate(120,0,0)">
      <path d="M0,-24 Q9,-9 -9,-9 Q9,-9 0,21 Q-9,-9 9,-9 Q0,-24 0,-24 Z"
            fill="none" stroke="#e74c3c" stroke-width="3" stroke-linejoin="round">
        <animateTransform attributeName="transform" type="rotate"
          values="120 0 0; 112 0 0; 128 0 0; 115 0 0; 125 0 0; 120 0 0"
          dur="0.5s" repeatCount="indefinite"/>
      </path>
    </g>
    <g transform="rotate(240,0,0)">
      <path d="M0,-24 Q9,-9 -9,-9 Q9,-9 0,21 Q-9,-9 9,-9 Q0,-24 0,-24 Z"
            fill="none" stroke="#e74c3c" stroke-width="3" stroke-linejoin="round">
        <animateTransform attributeName="transform" type="rotate"
          values="240 0 0; 232 0 0; 248 0 0; 235 0 0; 245 0 0; 240 0 0"
          dur="0.5s" repeatCount="indefinite"/>
      </path>
    </g>
  </g>
</svg>
