<svg xmlns="http://www.w3.org/2000/svg" viewBox="0 0 100 100" width="512" height="512">
  <style>
    /* 500 — 50ms twitch, then flatlined at 30% opacity */
    @keyframes flatline {
      0%   { transform: translate(0,0);     opacity: 1;   }
      4%   { transform: translate(2px,-1px); opacity: 1;   }
      8%   { transform: translate(-2px,1px); opacity: 1;   }
      12%  { transform: translate(1px,-1px); opacity: 0.7; }
      16%  { transform: translate(0,0);     opacity: 0.3; }
      100% { transform: translate(0,0);     opacity: 0.3; }
    }
    #mark {
      animation: flatline 0.5s ease 1 forwards;
    }
  </style>
  <g id="mark" fill="none" stroke="currentColor" stroke-width="2" stroke-linejoin="round">
    <g transform="rotate(0 50 56.67)">
      <path d="M50,20 Q60,40 40,40 Q60,40 50,70 Q40,40 60,40 Q50,20 50,20 Z"/>
    </g>
    <g transform="rotate(120 50 56.67)">
      <path d="M50,20 Q60,40 40,40 Q60,40 50,70 Q40,40 60,40 Q50,20 50,20 Z"/>
    </g>
    <g transform="rotate(240 50 56.67)">
      <path d="M50,20 Q60,40 40,40 Q60,40 50,70 Q40,40 60,40 Q50,20 50,20 Z"/>
    </g>
  </g>
</svg>
