<svg xmlns="http://www.w3.org/2000/svg" viewBox="0 0 100 100" width="512" height="512">
  <style>
    /* success — happy spring jump, settles, loops */
    @keyframes joy {
      0%, 65%, 100% { transform: scale(1); }
      15%  { transform: scale(1.2); }
      28%  { transform: scale(0.9); }
      40%  { transform: scale(1.07); }
      52%  { transform: scale(0.98); }
      60%  { transform: scale(1); }
    }
    #mark {
      transform-box: view-box;
      transform-origin: 50px 56.67px;
      animation: joy 2.5s cubic-bezier(0.34, 1.56, 0.64, 1) infinite;
    }
  </style>
  <g id="mark" fill="none" stroke="currentColor" stroke-width="2" stroke-linejoin="round">
    <g transform="rotate(0 50 56.67)">
      <path d="M50,20 Q60,40 40,40 Q60,40 50,70 Q40,40 60,40 Q50,20 50,20 Z"/>
    </g>
    <g transform="rotate(120 50 56.67)">
      <path d="M50,20 Q60,40 40,40 Q60,40 50,70 Q40,40 60,40 Q50,20 50,20 Z"/>
    </g>
    <g transform="rotate(240 50 56.67)">
      <path d="M50,20 Q60,40 40,40 Q60,40 50,70 Q40,40 60,40 Q50,20 50,20 Z"/>
    </g>
  </g>
</svg>
